<svg xmlns="http://www.w3.org/2000/svg" xmlns:xlink="http://www.w3.org/1999/xlink" width="100%" height="100%" version="1.1" viewBox="0 0 78 78" xml:space="preserve" style="fill-rule:evenodd;clip-rule:evenodd;stroke-linejoin:round;stroke-miterlimit:2"><g transform="matrix(1,0,0,1,-1,-1)"><g id="ToD_icon_dawn"><g><path d="M22.679,30C26.139,24.024 32.603,20 40,20C47.397,20 53.861,24.024 57.321,30L22.679,30Z" transform="matrix(1,0,0,1,0,26)" style="fill:#fff"/></g><g><path d="M64.076,14.53L57.005,21.601L58.42,23.015L65.491,15.944L64.076,14.53ZM23.035,21.601L15.964,14.53L14.55,15.944L21.621,23.015L23.035,21.601ZM41.02,14.98L41.02,4.98L39.02,4.98L39.02,14.98L41.02,14.98Z" transform="matrix(1,0,0,1,0,27.4796)" style="fill:#fff"/></g><g transform="matrix(1.501,0,0,1,-20.06,26)"><rect width="40" height="2" x="20" y="32" style="fill:#fff"/></g><g transform="matrix(0.975,0,0,0.975,1,1)"><circle cx="40" cy="40" r="40" style="fill:none"/></g></g></g></svg>